<svg width="1280" height="320" viewBox="0 0 1280 320" xmlns="http://www.w3.org/2000/svg">
<defs>
<style>
.display { font-family: 'Impact', 'Arial Black', sans-serif; font-weight: 900; }
.chunky { font-family: 'Arial Black', sans-serif; font-weight: 900; }
</style>
<pattern id="checker-02" x="0" y="0" width="48" height="48" patternUnits="userSpaceOnUse">
<rect x="0" y="0" width="24" height="24" fill="#FFD93D"/>
<rect x="24" y="24" width="24" height="24" fill="#FFD93D"/>
<rect x="24" y="0" width="24" height="24" fill="#1A1A1A"/>
<rect x="0" y="24" width="24" height="24" fill="#1A1A1A"/>
</pattern>
</defs>

<rect width="1280" height="320" fill="#E63946"/>

<rect x="0" y="0" width="1280" height="28" fill="url(#checker-02)"/>
<rect x="0" y="292" width="1280" height="28" fill="url(#checker-02)"/>

<g transform="translate(220, 165)">
<path d="M 0,0 Q 200,-65 400,0 T 800,0" fill="none" stroke="#2E5BBA" stroke-width="20"/>
<path d="M 0,22 Q 200,-43 400,22 T 800,22" fill="none" stroke="#FFD93D" stroke-width="20"/>
<path d="M 0,44 Q 200,-21 400,44 T 800,44" fill="none" stroke="#EC4899" stroke-width="20"/>
</g>

<g fill="#FFFFFF" stroke="#1A1A1A" stroke-width="2.5">
<polygon points="80,80 88,103 113,103 93,116 100,138 80,125 60,138 67,116 47,103 72,103"/>
<polygon points="1190,220 1198,243 1223,243 1203,256 1210,278 1190,265 1170,278 1177,256 1157,243 1182,243"/>
<polygon points="100,240 105,253 119,253 108,261 113,275 100,267 87,275 92,261 81,253 95,253"/>
</g>

<g transform="translate(640, 175)">
<rect x="-520" y="-65" width="1040" height="130" fill="#FFD93D" stroke="#1A1A1A" stroke-width="4" transform="rotate(-2)"/>
<text x="0" y="22" class="display" font-size="110" fill="#1A1A1A" text-anchor="middle" transform="rotate(-2)" letter-spacing="3">THE WORKSHOP</text>
</g>

<g transform="translate(140, 175)">
<circle cx="0" cy="0" r="50" fill="#EC4899" stroke="#1A1A1A" stroke-width="4"/>
<circle cx="-13" cy="-8" r="9" fill="#FFFFFF" stroke="#1A1A1A" stroke-width="2.5"/>
<circle cx="13" cy="-8" r="9" fill="#FFFFFF" stroke="#1A1A1A" stroke-width="2.5"/>
<circle cx="-13" cy="-8" r="4.5" fill="#1A1A1A"/>
<circle cx="13" cy="-8" r="4.5" fill="#1A1A1A"/>
<path d="M -16 16 Q 0 28 16 16" fill="none" stroke="#1A1A1A" stroke-width="3.5" stroke-linecap="round"/>
</g>

<g transform="translate(1140, 145)">
<polygon points="-42,-25 42,-25 42,25 8,25 0,42 -8,25 -42,25" fill="#FFFFFF" stroke="#1A1A1A" stroke-width="3.5"/>
<text x="0" y="6" class="chunky" font-size="20" fill="#1A1A1A" text-anchor="middle">§ 02</text>
</g>

</svg>
